# xmcd CD database file
#
# Track frame offsets:
#	150
#	60367
#	104840
#	170332
#	252157
#	305990
#
# Disc length: 4365 seconds
#
# Revision: 0
# Processed by: cddbd v1.5.1PL0 Copyright (c) Steve Scherf et al.
# Submitted via: CDex 1.60beta1
#
DISCID=50110b06
DTITLE=Liz Magnes - Jerusalem Tapestry
DYEAR=1900
DGENRE=Jazz
TTITLE0=December Days
TTITLE1=Tears Of Pearls
TTITLE2=Yahla Byes
TTITLE3=Prayer For Peace
TTITLE4=Camel Quilt
TTITLE5=Epilogue - Mountains Of Mist
EXTD=
EXTT0=
EXTT1=
EXTT2=
EXTT3=
EXTT4=
EXTT5=
PLAYORDER=
